<?xml version="1.0" standalone="no"?>
<!DOCTYPE svg PUBLIC "-//W3C//DTD SVG 20010904//EN"
 "http://www.w3.org/TR/2001/REC-SVG-20010904/DTD/svg10.dtd">
<svg version="1.0" xmlns="http://www.w3.org/2000/svg"
 width="50.000000pt" height="50.000000pt" viewBox="0 0 50.000000 50.000000"
 preserveAspectRatio="xMidYMid meet">

<g transform="translate(0.000000,50.000000) scale(0.100000,-0.100000)"
fill="#000000" stroke="none">
<path d="M185 486 c-65 -28 -105 -107 -91 -177 13 -67 88 -129 156 -129 43 0
104 33 132 72 35 50 33 132 -6 182 -46 61 -123 82 -191 52z m117 -93 c27 -24
24 -87 -4 -107 -52 -37 -118 -5 -118 56 0 17 7 40 17 50 20 23 80 24 105 1z"/>
<path d="M94 128 c7 -39 31 -74 70 -102 39 -29 133 -29 172 0 39 28 63 63 70
102 6 32 6 32 -34 32 -35 0 -43 -4 -54 -27 -7 -15 -26 -34 -41 -41 -35 -17
-76 1 -95 41 -11 23 -19 27 -54 27 -40 0 -40 0 -34 -32z"/>
</g>
</svg>
