<svg width="128" height="128" viewBox="0 0 128 128" fill="none" xmlns="http://www.w3.org/2000/svg">
<rect width="128" height="128" fill="black"/>
<path d="M34.2727 110V16.9091H65.7273C73.0303 16.9091 79 18.2273 83.6364 20.8636C88.303 23.4697 91.7576 27 94 31.4545C96.2424 35.9091 97.3636 40.8788 97.3636 46.3636C97.3636 51.8485 96.2424 56.8333 94 61.3182C91.7879 65.803 88.3636 69.3788 83.7273 72.0455C79.0909 74.6818 73.1515 76 65.9091 76H43.3636V66H65.5455C70.5455 66 74.5606 65.1364 77.5909 63.4091C80.6212 61.6818 82.8182 59.3485 84.1818 56.4091C85.5758 53.4394 86.2727 50.0909 86.2727 46.3636C86.2727 42.6364 85.5758 39.303 84.1818 36.3636C82.8182 33.4242 80.6061 31.1212 77.5455 29.4545C74.4849 27.7576 70.4242 26.9091 65.3636 26.9091H45.5455V110H34.2727Z" fill="white"/>
</svg>
